<svg xmlns="http://www.w3.org/2000/svg" width="1297" height="481" viewBox="0 0 1297 481" fill="none"><mask id="mask0_2_3295" style="mask-type:luminance" maskUnits="userSpaceOnUse" x="112" y="128" width="1072" height="226"><path d="M1183.37 128H112V353.18H1183.37V128Z" fill="white"></path></mask><g mask="url(#mask0_2_3295)"><path d="M843.862 240.983V202.939H820.985V278.013H842.216L867.002 240.283V278.013H889.874V202.939H868.648L843.862 240.983ZM711.901 233.29C711.901 236.018 710.539 241.29 703.521 241.29H695.42V221.418H704.545C706.974 221.418 711.901 223.403 711.901 229.268V233.29ZM706.995 202.939H671.277V278.013H695.42V259.583H706.995C722.608 259.583 735.4 250.976 735.4 235.647V226.861C735.4 211.546 722.608 202.939 706.995 202.939ZM1049.05 242.662C1049.05 254.091 1046.05 255.748 1041.73 257.726C1039.85 258.605 1034.74 258.412 1034.74 258.412V278.013H1044.21C1064.54 278.013 1072.04 266.169 1072.35 239.697C1072.42 233.697 1072.31 227.797 1072.35 222.518H1085.89V278.013H1110.05V202.939H1049.05V242.662ZM638.827 252.755C638.827 257.726 634.77 261.798 629.798 261.798H627.734C622.762 261.798 618.691 257.726 618.691 252.755V228.411C618.691 223.432 622.762 219.382 627.734 219.382H629.798C634.77 219.382 638.827 223.432 638.827 228.411V252.755ZM634.677 201.717H622.855C607.226 201.717 594.433 212.853 594.433 230.118V251.069C594.433 268.427 607.226 279.491 622.855 279.491H634.677C650.277 279.491 663.091 268.327 663.091 251.069V230.118C663.091 211.932 650.277 201.717 634.677 201.717ZM969.416 202.939H943.273L930.529 231.297H924.594V202.939H900.425V278.013H924.594V251.319H930.508L943.547 278.013H971.26L950.779 240.14L969.416 202.939ZM999.333 249.504H1026.55V231.647H999.333V222.518H1029.01V202.939H975.206V278.013H1031.25V258.412H999.333V249.504ZM1152.49 259.519H1143.39V243.133H1151.5C1158.33 243.133 1159.88 248.14 1159.88 251.391C1159.88 258.134 1154.32 259.519 1152.49 259.519ZM1154.95 224.832H1143.39V202.939H1119.24V278.013H1154.95C1170.58 278.013 1183.37 269.377 1183.37 254.069V248.776C1183.37 233.447 1170.58 224.832 1154.95 224.832ZM786.264 230.711H765.665V202.939H741.512V278.013H765.665V251.319H786.264V278.013H810.417V202.939H786.264V230.711ZM562.089 230.711H541.495V202.939H517.344V278.013H541.495V251.319H562.089V278.013H586.254V202.939H562.089V230.711ZM399.747 303.114C388.889 313.986 375.71 321.671 361.353 325.729V155.465C375.71 159.515 388.889 167.201 399.747 178.052C416.433 194.752 425.619 216.975 425.619 240.583C425.619 264.219 416.433 286.428 399.747 303.114ZM224.604 248.126V157.137L337.173 233.09V324.057L224.604 248.126ZM200.46 325.729C186.095 321.693 172.91 313.986 162.059 303.114C145.358 286.428 136.151 264.219 136.151 240.597C136.151 216.975 145.358 194.752 162.059 178.052C172.91 167.201 186.095 159.515 200.46 155.465V325.729ZM337.173 128V203.946L224.604 128.007C162.416 128.007 112 178.416 112 240.597C112 302.792 162.416 353.18 224.604 353.18V277.234L337.173 353.18C399.375 353.18 449.791 302.792 449.791 240.583C449.791 178.416 399.375 128 337.173 128Z" fill="#004C97"></path></g></svg>